{
  "accessors": [
    {
      "bufferView": 1,
      "componentType": 5126,
      "count": 835,
      "max": [
        5,
        -40,
        14.706999778747559
      ],
      "min": [
        -7,
        -50.727001190185547,
        2.7070000171661377
      ],
      "type": "VEC3"
    },
    {
      "bufferView": 1,
      "byteOffset": 10020,
      "componentType": 5126,
      "count": 835,
      "max": [
        0.96426081657409668,
        1,
        0.96427452564239502
      ],
      "min": [
        -0.97286665439605713,
        -0.99754083156585693,
        -0.97317135334014893
      ],
      "type": "VEC3"
    },
    {
      "bufferView": 0,
      "componentType": 5125,
      "count": 3576,
      "max": [
        834
      ],
      "min": [
        0
      ],
      "type": "SCALAR"
    },
    {
      "bufferView": 1,
      "byteOffset": 20040,
      "componentType": 5126,
      "count": 2964,
      "max": [
        20.636100769042969,
        -0,
        20
      ],
      "min": [
        -22.899900436401367,
        -62.638500213623047,
        0
      ],
      "type": "VEC3"
    },
    {
      "bufferView": 1,
      "byteOffset": 55608,
      "componentType": 5126,
      "count": 2964,
      "max": [
        1,
        1,
        1
      ],
      "min": [
        -1,
        -1,
        -1
      ],
      "type": "VEC3"
    },
    {
      "bufferView": 0,
      "byteOffset": 14304,
      "componentType": 5125,
      "count": 14634,
      "max": [
        2963
      ],
      "min": [
        0
      ],
      "type": "SCALAR"
    },
    {
      "bufferView": 1,
      "byteOffset": 91176,
      "componentType": 5126,
      "count": 2064,
      "max": [
        38,
        -20,
        19.707000732421875
      ],
      "min": [
        -40.659999847412109,
        -79.660003662109375,
        -2.2929999828338623
      ],
      "type": "VEC3"
    },
    {
      "bufferView": 1,
      "byteOffset": 115944,
      "componentType": 5126,
      "count": 2064,
      "max": [
        1,
        1,
        0.99718457460403442
      ],
      "min": [
        -1,
        -1,
        -0.99719542264938354
      ],
      "type": "VEC3"
    },
    {
      "bufferView": 0,
      "byteOffset": 72840,
      "componentType": 5125,
      "count": 6132,
      "max": [
        2063
      ],
      "min": [
        0
      ],
      "type": "SCALAR"
    }
  ],
  "asset": {
    "extras": {
      "author": "stevenjsetzer (https://sketchfab.com/stevenjsetzer)",
      "license": "CC-BY-4.0 (http://creativecommons.org/licenses/by/4.0/)",
      "source": "https://sketchfab.com/3d-models/tinker-fd48b090aff3411ca2e2dd2c57497244",
      "title": "Tinker"
    },
    "generator": "Sketchfab-9.52.0",
    "version": "2.0"
  },
  "bufferViews": [
    {
      "buffer": 0,
      "byteLength": 97368,
      "byteOffset": 0,
      "name": "floatBufferViews",
      "target": 34963
    },
    {
      "buffer": 0,
      "byteLength": 140712,
      "byteOffset": 97368,
      "byteStride": 12,
      "name": "floatBufferViews",
      "target": 34962
    }
  ],
  "buffers": [
    {
      "byteLength": 238080,
      "uri": "scene.bin"
    }
  ],
  "materials": [
    {
      "doubleSided": true,
      "emissiveFactor": [
        0,
        0,
        0
      ],
      "name": "color_14541540",
      "pbrMetallicRoughness": {
        "baseColorFactor": [
          0.86666699999999997,
          0.88627500000000003,
          0.89411799999999997,
          1
        ],
        "metallicFactor": 0,
        "roughnessFactor": 1
      }
    },
    {
      "doubleSided": true,
      "emissiveFactor": [
        0,
        0,
        0
      ],
      "name": "color_40919",
      "pbrMetallicRoughness": {
        "baseColorFactor": [
          0,
          0.623529,
          0.84313700000000003,
          1
        ],
        "metallicFactor": 0,
        "roughnessFactor": 1
      }
    },
    {
      "doubleSided": true,
      "emissiveFactor": [
        0,
        0,
        0
      ],
      "name": "color_8273816",
      "pbrMetallicRoughness": {
        "baseColorFactor": [
          0.494118,
          0.247059,
          0.596078,
          1
        ],
        "metallicFactor": 0,
        "roughnessFactor": 1
      }
    }
  ],
  "meshes": [
    {
      "primitives": [
        {
          "attributes": {
            "NORMAL": 1,
            "POSITION": 0
          },
          "indices": 2,
          "material": 0,
          "mode": 4
        }
      ]
    },
    {
      "primitives": [
        {
          "attributes": {
            "NORMAL": 4,
            "POSITION": 3
          },
          "indices": 5,
          "material": 1,
          "mode": 4
        }
      ]
    },
    {
      "primitives": [
        {
          "attributes": {
            "NORMAL": 7,
            "POSITION": 6
          },
          "indices": 8,
          "material": 2,
          "mode": 4
        }
      ]
    }
  ],
  "nodes": [
    {
      "children": [
        1
      ],
      "name": "RootNode (gltf orientation matrix)",
      "rotation": [
        -0.70710678118654746,
        -0,
        -0,
        0.70710678118654757
      ]
    },
    {
      "children": [
        2
      ],
      "name": "RootNode (model correction matrix)"
    },
    {
      "children": [
        3,
        4,
        5
      ],
      "name": "tinker.obj.cleaner.materialmerger.gles"
    },
    {
      "mesh": 0,
      "name": ""
    },
    {
      "mesh": 1,
      "name": ""
    },
    {
      "mesh": 2,
      "name": ""
    }
  ],
  "scene": 0,
  "scenes": [
    {
      "name": "OSG_Scene",
      "nodes": [
        0
      ]
    }
  ]
}

